<?xml version="1.0" encoding="UTF-8" standalone="no"?>
<svg
   xmlns:dc="http://purl.org/dc/elements/1.1/"
   xmlns:cc="http://creativecommons.org/ns#"
   xmlns:rdf="http://www.w3.org/1999/02/22-rdf-syntax-ns#"
   xmlns:svg="http://www.w3.org/2000/svg"
   xmlns="http://www.w3.org/2000/svg"
   xmlns:sodipodi="http://sodipodi.sourceforge.net/DTD/sodipodi-0.dtd"
   xmlns:inkscape="http://www.inkscape.org/namespaces/inkscape"
   width="64pt"
   height="64pt"
   viewBox="0 0 64 64"
   version="1.1"
   id="svg3071"
   inkscape:version="0.48.4 r9939"
   sodipodi:docname="icon.svg">
  <metadata
     id="metadata3155">
    <rdf:RDF>
      <cc:Work
         rdf:about="">
        <dc:format>image/svg+xml</dc:format>
        <dc:type
           rdf:resource="http://purl.org/dc/dcmitype/StillImage" />
      </cc:Work>
    </rdf:RDF>
  </metadata>
  <defs
     id="defs3153" />
  <sodipodi:namedview
     pagecolor="#ffffff"
     bordercolor="#666666"
     borderopacity="1"
     objecttolerance="10"
     gridtolerance="10"
     guidetolerance="10"
     inkscape:pageopacity="0"
     inkscape:pageshadow="2"
     inkscape:window-width="1920"
     inkscape:window-height="1137"
     id="namedview3151"
     showgrid="false"
     inkscape:zoom="11.875"
     inkscape:cx="40"
     inkscape:cy="40"
     inkscape:window-x="1912"
     inkscape:window-y="-8"
     inkscape:window-maximized="1"
     inkscape:current-layer="svg3071" />
  <path
     d="M 2.5789474e-7,0.33684215 31.85,0.33684215 C 31.6,1.5168421 31.38,2.7068421 31.19,3.9068421 c -4.35,0.6 -8.59,1.8 -12.6,3.58 -0.92,-1.11 -1.86,-2.21 -2.82,-3.28 0.5,1.45 1.02,2.9 1.58,4.33 -1.25,0.7499998 -2.49,1.5099999 -3.78,2.1799999 -0.45,0.04 -1.34,0.12 -1.79,0.17 -1.8699998,1.14 -3.2399998,2.87 -4.1099998,4.86 0.35,0.37 1.07,1.12 1.43,1.5 -1.74,-0.26 -3.4700001,-0.55 -5.1999999,-0.86 1.0599998,0.82 2.1299998,1.65 3.1899998,2.48 -1.93,4.03 -3.1199998,8.35 -3.7399998,12.77 -1.12,0.12 -2.23,0.22 -3.35000004210526,0.29 l 0,-31.58999985 z"
     id="path3073"
     style="fill:none"
     inkscape:connector-curvature="0" />
  <path
     d="m 31.85,0.33684215 1.21,0 -1.05,0.01 c 0.39,1.13999995 1.16,3.41999995 1.55,4.55999995 -0.47,1.97 -0.87,3.95 -1.25,5.9299999 -0.55,0.09 -1.65,0.28 -2.2,0.37 0.35,-2.4399999 0.69,-4.8699999 1.08,-7.2999999 0.19,-1.2 0.41,-2.39 0.66,-3.56999995 z"
     id="path3075"
     inkscape:connector-curvature="0"
     style="fill:#004d81" />
  <path
     d="m 34.29,2.0768421 c 2.59,0.15 5.11,0.88 7.13,2.57 -0.27,1.8 -0.53,3.59 -0.76,5.3899999 -0.94,1.9 -2.04,3.71 -3.14,5.52 0.84,-0.99 1.68,-1.98 2.53,-2.96 1.21,1.32 2.45,2.64 3.58,4.04 0.63,1.59 1.1,3.23 1.52,4.89 0.47,2.03 0.87,4.08 1.38,6.1 0.13,0.41 0.38,1.23 0.5,1.64 0.7,1.98 1.52,3.92 2.32,5.85 0.69,1.69 1.34,3.39 1.94,5.11 0.02,1.72 -0.04,3.45 -0.17,5.18 -1.48,2.48 -3.35,4.72 -5.54,6.61 -1.02,0.65 -2.06,1.27 -3.13,1.83 l -0.65,0.25 c -1.24,-0.14 -2.48,-0.29 -3.72,-0.44 4.07,-1.03 8.21,-2.98 10.52,-6.65 1.5,-2.23 1.15,-5.03 1.27,-7.56 -1.54,3.48 -2.54,7.52 -5.8,9.87 -2,1.85 -4.64,-0.33 -6.73,-0.96 -0.92,1.42 -1.1,4 -3.3,3.98 -5.42,0.26 -9.88,-3.31 -14.55,-5.5 2.39,3.9 6.62,5.77 10.58,7.67 -1.89,0.79 -3.91,0.64 -5.86,0.21 -0.52,-0.38 -1.57,-1.15 -2.09,-1.54 -1,-0.94 -1.96,-1.93 -2.86,-2.96 -1.11,-1.99 -1.87,-4.16 -2.11,-6.43 -0.01,-1.96 0.07,-3.91 0.02,-5.87 -0.22,-0.94 -0.47,-1.88 -0.75,-2.8 -0.57,-1.83 -1.2,-3.64 -1.7,-5.49 -0.23,-1.67 -0.37,-3.35 -0.41,-5.04 0.18,-0.79 0.54,-2.38 0.71,-3.17 0.67,0.28 2.01,0.86 2.68,1.15 -0.12,1.41 -0.16,2.82 -0.22,4.23 2.7,-2.64 6.2,-3.94 9.97,-3.9 -0.6,-0.99 -1.2,-1.98 -1.8,-2.97 -1.98,-0.35 -3.96,-0.73 -5.94,-1.1 -0.21,-0.81 -0.64,-2.41 -0.85,-3.22 0.25,-0.17 0.75,-0.51 1.01,-0.67 1.07,-0.67 2.16,-1.33 3.29,-1.91 2.25,-0.85 4.58,-1.42 6.95,-1.82 0.55,-0.09 1.65,-0.28 2.2,-0.37 0.38,-1.9799999 0.78,-3.9599999 1.25,-5.9299999 0.18,-0.7 0.54,-2.12 0.73,-2.83 z"
     id="path3079"
     inkscape:connector-curvature="0"
     style="fill:#b548b3" />
  <path
     d="m 15.77,4.2068421 c 0.96,1.07 1.9,2.17 2.82,3.28 1.53,1.8399998 3.04,3.6999999 4.57,5.5399999 -1.13,0.58 -2.22,1.24 -3.29,1.91 -0.78,-2.16 -1.68,-4.27 -2.52,-6.3999999 -0.56,-1.43 -1.08,-2.88 -1.58,-4.33 z"
     id="path3081"
     inkscape:connector-curvature="0"
     style="fill:#004d80" />
  <path
     d="m 18.59,7.4868421 c 4.01,-1.78 8.25,-2.98 12.6,-3.58 -0.39,2.43 -0.73,4.86 -1.08,7.2999999 -2.37,0.4 -4.7,0.97 -6.95,1.82 -1.53,-1.84 -3.04,-3.7000001 -4.57,-5.5399999 z"
     id="path3083"
     inkscape:connector-curvature="0"
     style="fill:#0076b6" />
  <path
     d="m 35.59,4.8168421 c 0.73,-1.41 3.54,-1.32 3.63,0.62 -0.34,2.61 -0.69,6.3399999 -3.83,6.9799999 -0.21,-2.4900001 -1.32,-5.3099999 0.2,-7.5999999 z"
     id="path3085"
     inkscape:connector-curvature="0"
     style="fill:#371d3a" />
  <path
     d="m 45.51,7.3768421 c 0.91,-1.09 1.84,-2.16 2.78,-3.23 -0.41,1.19 -0.82,2.38 -1.25,3.56 -1.1,2.9899999 -2.27,5.9499999 -3.41,8.9299999 -1.13,-1.4 -2.37,-2.72 -3.58,-4.04 -0.85,0.98 -1.69,1.97 -2.53,2.96 1.1,-1.81 2.2,-3.62 3.14,-5.52 0.03,0.73 0.09,2.19 0.12,2.92 1.62,-1.82 3.19,-3.6900001 4.73,-5.5799999 z"
     id="path3087"
     inkscape:connector-curvature="0"
     style="fill:#004c7f" />
  <path
     d="m 41.42,4.6468421 c 1.34,0.94 2.72,1.84 4.09,2.73 -1.54,1.8899998 -3.11,3.7599999 -4.73,5.5799999 -0.03,-0.73 -0.09,-2.19 -0.12,-2.92 0.23,-1.7999999 0.49,-3.5899999 0.76,-5.3899999 z"
     id="path3089"
     inkscape:connector-curvature="0"
     style="fill:#0076b6" />
  <path
     d="m 17.35,8.5368421 c 0.84,2.1299999 1.74,4.2399999 2.52,6.3999999 -0.26,0.16 -0.76,0.5 -1.01,0.67 -1.55,-1.85 -3.41,-3.4 -5.29,-4.89 1.29,-0.67 2.53,-1.4300001 3.78,-2.1799999 z"
     id="path3091"
     inkscape:connector-curvature="0"
     style="fill:#0076b6" />
  <path
     d="m 43.63,16.636842 c 1.14,-2.98 2.31,-5.94 3.41,-8.9299999 3.87,2.5499999 7.32,5.7099999 10.06,9.4599999 -3.97,1.5 -7.91,3.07 -11.95,4.36 -0.42,-1.66 -0.89,-3.3 -1.52,-4.89 z"
     id="path3093"
     inkscape:connector-curvature="0"
     style="fill:#0076b7" />
  <path
     d="m 7.6700002,15.746842 c 0.87,-1.99 2.24,-3.72 4.1099998,-4.86 0.45,-0.05 1.34,-0.13 1.79,-0.17 1.88,1.49 3.74,3.04 5.29,4.89 0.21,0.81 0.64,2.41 0.85,3.22 -1.89,1.57 -4.18,2.54 -6.63,1.62 -1.45,-0.91 -2.72,-2.05 -3.9799998,-3.2 -0.36,-0.38 -1.08,-1.13 -1.43,-1.5 z"
     id="path3095"
     inkscape:connector-curvature="0"
     style="fill:#b349bf" />
  <path
     d="m 10.32,15.846842 c -0.19,-1.32 1.094737,-2.582105 1.524737,-3.742105 2.37,1.82 4.795263,3.802105 6.185263,6.542105 -2.83,1.21 -6.14,-0.32 -7.71,-2.8 z"
     id="path3097"
     inkscape:connector-curvature="0"
     style="fill:#381d3b"
     sodipodi:nodetypes="cccc" />
  <path
     d="m 3.9000003,16.386842 c 1.7299998,0.31 3.4599999,0.6 5.1999999,0.86 1.2599998,1.15 2.5299998,2.29 3.9799998,3.2 0.64,0.34 1.29,0.66 1.94,0.97 -0.17,0.79 -0.53,2.38 -0.71,3.17 -2.41,-1.91 -4.8099998,-3.82 -7.2199999,-5.72 -1.06,-0.83 -2.13,-1.66 -3.1899998,-2.48 z"
     id="path3099"
     inkscape:connector-curvature="0"
     style="fill:#004c7f" />
  <path
     d="m 31.57,18.056842 c 2.04,-0.77 4.18,-1.8 6.42,-1.25 1.73,0.17 2.36,2.07 3.41,3.18 -3.26,-0.34 -6.52,-0.02 -9.05,2.25 -0.26,-1.4 -0.52,-2.79 -0.78,-4.18 z"
     id="path3101"
     inkscape:connector-curvature="0"
     style="fill:#492444" />
  <path
     d="m 57.1,17.166842 c 1.02,-0.37 2.04,-0.72 3.07,-1.06 -0.8,0.71 -1.6,1.4 -2.41,2.08 -3.76,3.13 -7.77,5.97 -11.23,9.44 -0.51,-2.02 -0.91,-4.07 -1.38,-6.1 4.04,-1.29 7.98,-2.86 11.95,-4.36 z"
     id="path3103"
     inkscape:connector-curvature="0"
     style="fill:#004d81" />
  <path
     d="m 19.71,18.826842 c 1.98,0.37 3.96,0.75 5.94,1.1 -2.85,0.13 -5.8,0.58 -7.95,2.64 -0.67,-0.29 -2.01,-0.87 -2.68,-1.15 -0.65,-0.31 -1.3,-0.63 -1.94,-0.97 2.45,0.92 4.74,-0.05 6.63,-1.62 z"
     id="path3105"
     inkscape:connector-curvature="0"
     style="fill:#8d3c93" />
  <path
     d="m 46.53,27.626842 c 3.46,-3.47 7.47,-6.31 11.23,-9.44 2.19,4.24 3.56,8.84 4.13,13.57 -4.96,-0.79 -9.98,-1.23 -14.86,-2.49 -0.12,-0.41 -0.37,-1.23 -0.5,-1.64 z"
     id="path3107"
     inkscape:connector-curvature="0"
     style="fill:#0076b6" />
  <path
     d="m 7.0900001,18.866842 c 2.4100001,1.9 4.8099999,3.81 7.2199999,5.72 0.04,1.69 0.18,3.37 0.41,5.04 -3.77,0.79 -7.5499999,1.54 -11.3699997,2.01 0.62,-4.42 1.8099998,-8.74 3.7399998,-12.77 z"
     id="path3109"
     inkscape:connector-curvature="0"
     style="fill:#0076b6" />
  <path
     d="m 17.7,22.566842 c 2.15,-2.06 5.1,-2.51 7.95,-2.64 0.6,0.99 1.2,1.98 1.8,2.97 -3.77,-0.04 -7.27,1.26 -9.97,3.9 0.06,-1.41 0.1,-2.82 0.22,-4.23 z"
     id="path3111"
     inkscape:connector-curvature="0"
     style="fill:#492443" />
  <path
     d="m 33.9,25.126842 c 0.54,-1.66 2.25,-2.74 3.98,-2.45 2.66,0.12 4.18,2.68 5.26,4.79 -0.15,1.67 -0.06,3.49 -1.13,4.89 -1.8,1.18 -4.05,0.82 -6.09,0.88 -1.46,-2.37 -3.25,-5.26 -2.02,-8.11 z"
     id="path3113"
     inkscape:connector-curvature="0"
     style="fill:#fefefe" />
  <path
     d="m 21.35,25.916842 c 5.38,-3.97 11.5,6.97 5.5,9.51 -5.29,2.62 -9.63,-6.01 -5.5,-9.51 z"
     id="path3115"
     inkscape:connector-curvature="0"
     style="fill:#fefefe" />
  <path
     d="m 34.63,24.936842 c 2.09,-1.93 6.101579,2.111053 3.671579,3.941053 -1.83,1.95 -5.211579,-1.861053 -3.671579,-3.941053 z"
     id="path3117"
     inkscape:connector-curvature="0"
     style="fill:#5e315d"
     sodipodi:nodetypes="ccc" />
  <path
     d="m 20.93,27.586842 c 2.4,-1.45 6.150526,2.571053 3.850526,4.221053 -1.96,2.1 -6.030526,-2.791053 -3.850526,-4.221053 z"
     id="path3119"
     inkscape:connector-curvature="0"
     style="fill:#4a2346"
     sodipodi:nodetypes="ccc" />
  <path
     d="m 43.14,27.466842 c 0.14,1.57 0.28,3.14 0.46,4.7 -2.07,2.03 -5.11,1.68 -7.68,1.07 2.04,-0.06 4.29,0.3 6.09,-0.88 1.07,-1.4 0.98,-3.22 1.13,-4.89 z"
     id="path3121"
     inkscape:connector-curvature="0"
     style="fill:#4a2346" />
  <path
     d="m 14.72,29.626842 c 0.5,1.85 1.13,3.66 1.7,5.49 -4.36,-0.72 -8.7399998,-1.35 -13.1099997,-2 -1.11,-0.18 -2.21,-0.38 -3.31000004210527,-0.61 l 0,-0.58 C 1.1200003,31.856842 2.2300003,31.756842 3.3500003,31.636842 c 3.8199998,-0.47 7.5999997,-1.22 11.3699997,-2.01 z"
     id="path3123"
     inkscape:connector-curvature="0"
     style="fill:#004c7f" />
  <path
     d="m 47.03,29.266842 c 4.88,1.26 9.9,1.7 14.86,2.49 0.53,0.11 1.58,0.31 2.11,0.41 l 0,1.28 -0.01,-0.95 -1.93,0.36 c -4.25,0.67 -8.51,1.32 -12.71,2.26 -0.8,-1.93 -1.62,-3.87 -2.32,-5.85 z"
     id="path3125"
     inkscape:connector-curvature="0"
     style="fill:#004d80" />
  <path
     d="m 3.3100003,33.116842 c 4.3699999,0.65 8.7499997,1.28 13.1099997,2 0.28,0.92 0.53,1.86 0.75,2.8 -3.62,2.76 -7.2299998,5.52 -10.7299999,8.43 -1.7699998,-4.21 -2.7799998,-8.68 -3.1299998,-13.23 z"
     id="path3129"
     inkscape:connector-curvature="0"
     style="fill:#0076b6" />
  <path
     d="m 49.35,35.116842 c 4.2,-0.94 8.46,-1.59 12.71,-2.26 -0.48,4.72 -1.55,9.35 -3.35,13.74 -2.87,-1.59 -5.7,-3.48 -7.42,-6.37 -0.6,-1.72 -1.25,-3.42 -1.94,-5.11 z"
     id="path3131"
     inkscape:connector-curvature="0"
     style="fill:#0076b6" />
  <path
     d="m 6.4400001,46.346842 c 3.5000001,-2.91 7.1099999,-5.67 10.7299999,-8.43 0.05,1.96 -0.03,3.91 -0.02,5.87 -3.38,1.17 -6.73,2.46 -10.0899999,3.69 -1.07,0.38 -2.14,0.75 -3.2199998,1.11 0.86,-0.76 1.7299998,-1.5 2.5999998,-2.24 z"
     id="path3133"
     inkscape:connector-curvature="0"
     style="fill:#004d81" />
  <path
     d="m 44.07,49.316842 c 3.26,-2.35 4.26,-6.39 5.8,-9.87 -0.12,2.53 0.23,5.33 -1.27,7.56 -2.31,3.67 -6.45,5.62 -10.52,6.65 -0.92,0 -1.85,0.01 -2.77,0.03 0.1,2.38 0.18,4.76 0.26,7.14 -0.68,-2.04 -1.15,-4.17 -2.2,-6.05 -0.73,-1.29 -2.21,-0.42 -3.3,-0.27 -3.96,-1.9 -8.19,-3.77 -10.58,-7.67 4.67,2.19 9.13,5.76 14.55,5.5 2.2,0.02 2.38,-2.56 3.3,-3.98 2.09,0.63 4.73,2.81 6.73,0.96 z"
     id="path3135"
     inkscape:connector-curvature="0"
     style="fill:#4a2346" />
  <path
     d="m 51.29,40.226842 c 1.72,2.89 4.55,4.78 7.42,6.37 l -0.03,0.11 c 0.24,0.45 0.73,1.37 0.97,1.82 -0.42,-0.16 -1.25,-0.49 -1.67,-0.66 -2.27,-0.87 -4.57,-1.67 -6.86,-2.46 0.13,-1.73 0.19,-3.46 0.17,-5.18 z"
     id="path3137"
     inkscape:connector-curvature="0"
     style="fill:#004c7f" />
  <path
     d="m 7.0600001,47.476842 c 3.3599999,-1.23 6.7099999,-2.52 10.0899999,-3.69 0.24,2.27 1,4.44 2.11,6.43 -0.87,2.88 -1.74,5.77 -2.57,8.66 1.83,-1.88 3.63,-3.79 5.43,-5.7 0.52,0.39 1.57,1.16 2.09,1.54 1.28,1.5 3.35,1.38 5.12,1.72 0.29,2.62 1.81,4.78 3.41,6.78 -5.05,-1.4 -10.28,-2.29 -14.97,-4.76 -0.49,0.49 -1.48,1.46 -1.97,1.95 0.19,-0.69 0.56,-2.05 0.74,-2.74 -3.72,-2.83 -6.9599998,-6.24 -9.4799999,-10.19 z"
     id="path3139"
     inkscape:connector-curvature="0"
     style="fill:#0076b7" />
  <path
     d="m 51.12,45.406842 c 2.29,0.79 4.59,1.59 6.86,2.46 -2.72,4.26 -6.46,7.66 -10.45,10.7 -0.59,-2.2 -1.29,-4.37 -1.95,-6.55 2.19,-1.89 4.06,-4.13 5.54,-6.61 z"
     id="path3141"
     inkscape:connector-curvature="0"
     style="fill:#0076b6" />
  <path
     d="m 19.26,50.216842 c 0.9,1.03 1.86,2.02 2.86,2.96 -1.8,1.91 -3.6,3.82 -5.43,5.7 0.83,-2.89 1.7,-5.78 2.57,-8.66 z"
     id="path3143"
     inkscape:connector-curvature="0"
     style="fill:#0b4f85" />
  <path
     d="m 42.45,53.846842 c 1.07,-0.56 2.11,-1.18 3.13,-1.83 0.66,2.18 1.36,4.35 1.95,6.55 0.11,0.45 0.32,1.35 0.43,1.79 -0.31,-0.37 -0.93,-1.11 -1.24,-1.49 -1.41,-1.68 -2.84,-3.35 -4.27,-5.02 z"
     id="path3145"
     inkscape:connector-curvature="0"
     style="fill:#004c7f" />
  <path
     d="m 30.07,54.506842 c 1.09,-0.15 2.57,-1.02 3.3,0.27 1.05,1.88 1.52,4.01 2.2,6.05 -0.08,-2.38 -0.16,-4.76 -0.26,-7.14 0.92,-0.02 1.85,-0.03 2.77,-0.03 1.24,0.15 2.48,0.3 3.72,0.44 -0.5,0.18 -1.51,0.56 -2.01,0.75 -0.13,2.38 -0.34,4.78 -1.07,7.08 -1.57,1.86 -3.77,2.35 -5.98,1.29 -1.6,-2 -3.12,-4.16 -3.41,-6.78 -1.77,-0.34 -3.84,-0.22 -5.12,-1.72 1.95,0.43 3.97,0.58 5.86,-0.21 z"
     id="path3147"
     inkscape:connector-curvature="0"
     style="fill:#ff1d27" />
  <path
     d="m 41.8,54.096842 0.65,-0.25 c 1.43,1.67 2.86,3.34 4.27,5.02 -2.65,1.08 -5.32,2.08 -8,3.06 0.73,-2.3 0.94,-4.7 1.07,-7.08 0.5,-0.19 1.51,-0.57 2.01,-0.75 z"
     id="path3149"
     inkscape:connector-curvature="0"
     style="fill:#0076b6" />
  <path
     style="fill:none"
     d="m 2.5789474e-7,48.433354 c 0,-15.115186 0.005800002105,-15.901676 0.11789500210526,-15.866945 0.09527,0.02953 2.06851404,0.393845 2.95320604,0.545245 l 0.207942,0.03558 0.08079,0.857959 c 0.365271,3.879028 1.332544,8.035598 2.6374695,11.333749 0.06597,0.166736 0.1819668,0.459384 0.2577706,0.650328 l 0.1378252,0.347172 -1.2764498,1.095731 C 4.4144013,48.034828 3.8399993,48.551 3.8399993,48.579225 c 0,0.04164 1.2568077,-0.373757 2.9299299,-0.968394 l 0.2688775,-0.09556 0.5732275,0.848879 c 2.168186,3.210812 4.9392848,6.181938 8.1382918,8.725742 0.635635,0.505448 0.749286,0.62376 0.711859,0.741053 -0.169777,0.532073 -0.687074,2.564513 -0.659689,2.591898 0.01861,0.01861 0.470619,-0.402182 1.004474,-0.935085 l 0.970646,-0.968913 0.86277,0.410503 c 1.204757,0.573219 2.652411,1.139332 4.231192,1.654628 1.623104,0.529763 2.670542,0.819726 6.501052,1.799691 1.61179,0.412347 3.188211,0.840599 3.503158,0.951672 1.119011,0.394644 1.270116,0.424315 2.15579,0.423293 0.735998,-8.8e-4 0.911834,-0.02418 1.395503,-0.185138 0.651939,-0.216959 1.454122,-0.730203 1.94333,-1.243358 l 0.340937,-0.357628 2.219063,-0.829869 c 1.220484,-0.456428 3.000985,-1.137085 3.956669,-1.512572 0.955684,-0.375487 1.762318,-0.682703 1.79252,-0.682703 0.0302,0 0.322941,0.322958 0.650533,0.717682 0.327591,0.394726 0.605513,0.688008 0.617602,0.65174 0.01209,-0.03627 -0.06738,-0.442428 -0.176582,-0.902575 -0.109209,-0.460147 -0.193343,-0.839699 -0.186964,-0.843447 0.0064,-0.0038 0.375389,-0.289975 0.82002,-0.636058 3.88016,-3.02015 6.901198,-6.104342 9.08281,-9.272682 l 0.518289,-0.752709 0.819401,0.331355 c 0.450671,0.182245 0.831309,0.319447 0.845863,0.304892 0.01455,-0.01455 -0.192589,-0.43126 -0.46032,-0.926014 l -0.486784,-0.899553 0.173462,-0.471578 c 0.779258,-2.118527 0.973322,-2.678279 1.269766,-3.662479 0.834836,-2.771692 1.554145,-6.259016 1.815261,-8.80068 0.04568,-0.444631 0.102695,-0.830753 0.126703,-0.858049 0.05641,-0.06414 1.77851,-0.388811 1.823531,-0.343802 0.01877,0.01876 0.0425,7.17096 0.05273,15.893772 l 0.0186,15.859659 -32.001759,0 -32.0017597421053,0 0,-15.903488 z"
     id="path3165"
     inkscape:connector-curvature="0" />
  <path
     style="fill:none"
     d="m 2.5789474e-7,48.433354 c 0,-15.115186 0.005800002105,-15.901676 0.11789500210526,-15.866945 0.09527,0.02953 2.06851404,0.393845 2.95320604,0.545245 l 0.207942,0.03558 0.08079,0.857959 c 0.365271,3.879028 1.332544,8.035598 2.6374695,11.333749 0.06597,0.166736 0.1819668,0.459384 0.2577706,0.650328 l 0.1378252,0.347172 -1.2764498,1.095731 C 4.4144013,48.034828 3.8399993,48.551 3.8399993,48.579225 c 0,0.04164 1.2568077,-0.373757 2.9299299,-0.968394 l 0.2688775,-0.09556 0.5732275,0.848879 c 2.168186,3.210812 4.9392848,6.181938 8.1382918,8.725742 0.635635,0.505448 0.749286,0.62376 0.711859,0.741053 -0.169777,0.532073 -0.687074,2.564513 -0.659689,2.591898 0.01861,0.01861 0.470619,-0.402182 1.004474,-0.935085 l 0.970646,-0.968913 0.86277,0.410503 c 1.204757,0.573219 2.652411,1.139332 4.231192,1.654628 1.623104,0.529763 2.670542,0.819726 6.501052,1.799691 1.61179,0.412347 3.188211,0.840599 3.503158,0.951672 1.119011,0.394644 1.270116,0.424315 2.15579,0.423293 0.735998,-8.8e-4 0.911834,-0.02418 1.395503,-0.185138 0.651939,-0.216959 1.454122,-0.730203 1.94333,-1.243358 l 0.340937,-0.357628 2.219063,-0.829869 c 1.220484,-0.456428 3.000985,-1.137085 3.956669,-1.512572 0.955684,-0.375487 1.762318,-0.682703 1.79252,-0.682703 0.0302,0 0.322941,0.322958 0.650533,0.717682 0.327591,0.394726 0.605513,0.688008 0.617602,0.65174 0.01209,-0.03627 -0.06738,-0.442428 -0.176582,-0.902575 -0.109209,-0.460147 -0.193343,-0.839699 -0.186964,-0.843447 0.0064,-0.0038 0.375389,-0.289975 0.82002,-0.636058 3.88016,-3.02015 6.901198,-6.104342 9.08281,-9.272682 l 0.518289,-0.752709 0.819401,0.331355 c 0.450671,0.182245 0.831309,0.319447 0.845863,0.304892 0.01455,-0.01455 -0.192589,-0.43126 -0.46032,-0.926014 l -0.486784,-0.899553 0.173462,-0.471578 c 0.779258,-2.118527 0.973322,-2.678279 1.269766,-3.662479 0.834836,-2.771692 1.554145,-6.259016 1.815261,-8.80068 0.04568,-0.444631 0.102695,-0.830753 0.126703,-0.858049 0.05641,-0.06414 1.77851,-0.388811 1.823531,-0.343802 0.01877,0.01876 0.0425,7.17096 0.05273,15.893772 l 0.0186,15.859659 -32.001759,0 -32.0017597421053,0 0,-15.903488 z"
     id="path3167"
     inkscape:connector-curvature="0" />
</svg>
